<svg xmlns="http://www.w3.org/2000/svg" width="20" height="20" viewBox="0 0 20 20">
  <path id="패스_44782" data-name="패스 44782" d="M-335.982,937.38a3.239,3.239,0,0,0-1.768-2.526c-1.56-.6-7.814-.6-7.814-.6s-6.254,0-7.814.6a3.239,3.239,0,0,0-1.768,2.526,52.8,52.8,0,0,0-.418,6.877,52.794,52.794,0,0,0,.418,6.877,3.239,3.239,0,0,0,1.768,2.526c1.56.6,7.814.6,7.814.6s6.254,0,7.814-.6a3.239,3.239,0,0,0,1.768-2.526,52.82,52.82,0,0,0,.418-6.877A52.825,52.825,0,0,0-335.982,937.38Zm-11.582,11.163v-8.571l5.2,4.286Z" transform="translate(355.564 -934.257)" fill="#fff"/>
</svg>
