<svg xmlns="http://www.w3.org/2000/svg" width="20" height="20" viewBox="0 0 20 20">
  <path id="패스_44781" data-name="패스 44781" d="M-599.566,192.27a10.031,10.031,0,0,0-10-10.061,10.031,10.031,0,0,0-10,10.061,10.045,10.045,0,0,0,8.438,9.939v-7.031h-2.539V192.27h2.539v-2.217c0-2.522,1.493-3.914,3.777-3.914a15.293,15.293,0,0,1,2.239.2v2.476h-1.261a1.45,1.45,0,0,0-1.63,1.571v1.887h2.773l-.443,2.908H-608v7.031A10.045,10.045,0,0,0-599.566,192.27Z" transform="translate(619.566 -182.209)" fill="#fff"/>
</svg>
