<svg xmlns="http://www.w3.org/2000/svg" width="20" height="20" viewBox="0 0 20 20">
  <g id="그룹_832" data-name="그룹 832" transform="translate(368.824 -348.956)">
    <g id="그룹_831" data-name="그룹 831" transform="translate(-368.824 348.956)">
      <g id="그룹_830" data-name="그룹 830" transform="translate(0 0)">
        <path id="패스_44779" data-name="패스 44779" d="M-339.685,369.9c2.67,0,2.986.01,4.041.058a5.532,5.532,0,0,1,1.857.344,3.1,3.1,0,0,1,1.15.748,3.1,3.1,0,0,1,.748,1.15,5.541,5.541,0,0,1,.344,1.857c.048,1.054.058,1.371.058,4.041s-.01,2.986-.058,4.041a5.541,5.541,0,0,1-.344,1.857,3.1,3.1,0,0,1-.748,1.15,3.1,3.1,0,0,1-1.15.748,5.534,5.534,0,0,1-1.857.344c-1.054.048-1.371.058-4.041.058s-2.987-.01-4.041-.058a5.534,5.534,0,0,1-1.857-.344,3.1,3.1,0,0,1-1.15-.748,3.1,3.1,0,0,1-.748-1.15,5.532,5.532,0,0,1-.344-1.857c-.048-1.054-.058-1.371-.058-4.041s.01-2.987.058-4.041a5.532,5.532,0,0,1,.344-1.857,3.1,3.1,0,0,1,.748-1.15,3.1,3.1,0,0,1,1.15-.748,5.532,5.532,0,0,1,1.857-.344c1.055-.048,1.371-.058,4.041-.058m0-1.8c-2.716,0-3.056.011-4.123.06a7.34,7.34,0,0,0-2.427.465,4.9,4.9,0,0,0-1.771,1.153,4.9,4.9,0,0,0-1.153,1.771,7.342,7.342,0,0,0-.465,2.428c-.049,1.067-.06,1.407-.06,4.123s.012,3.056.06,4.123a7.341,7.341,0,0,0,.465,2.428,4.9,4.9,0,0,0,1.153,1.771,4.9,4.9,0,0,0,1.771,1.153,7.341,7.341,0,0,0,2.427.465c1.067.049,1.407.06,4.123.06s3.056-.012,4.123-.06a7.341,7.341,0,0,0,2.427-.465,4.9,4.9,0,0,0,1.771-1.153,4.9,4.9,0,0,0,1.153-1.771,7.344,7.344,0,0,0,.465-2.428c.049-1.067.06-1.407.06-4.123s-.012-3.056-.06-4.123a7.344,7.344,0,0,0-.465-2.428,4.906,4.906,0,0,0-1.153-1.771,4.9,4.9,0,0,0-1.771-1.153,7.34,7.34,0,0,0-2.427-.465c-1.067-.049-1.407-.06-4.123-.06Z" transform="translate(349.685 -368.095)" fill="#fff"/>
        <path id="패스_44780" data-name="패스 44780" d="M-323.786,388.77a5.223,5.223,0,0,0-5.223,5.223,5.223,5.223,0,0,0,5.223,5.223,5.223,5.223,0,0,0,5.223-5.223A5.223,5.223,0,0,0-323.786,388.77Zm0,8.613a3.39,3.39,0,0,1-3.39-3.39,3.39,3.39,0,0,1,3.39-3.39,3.39,3.39,0,0,1,3.39,3.39A3.39,3.39,0,0,1-323.786,397.383Z" transform="translate(333.786 -383.993)" fill="#fff"/>
        <circle id="타원_73" data-name="타원 73" cx="1.178" cy="1.178" r="1.178" transform="translate(14.173 3.47)" fill="#fff"/>
      </g>
    </g>
  </g>
</svg>
