<svg xmlns="http://www.w3.org/2000/svg" width="190.957" height="33.847" viewBox="0 0 190.957 33.847">
  <g id="그룹_794" data-name="그룹 794" transform="translate(-1442.538 -322.514)">
    <g id="그룹_793" data-name="그룹 793" transform="translate(1567.802 322.514)">
      <g id="그룹_792" data-name="그룹 792">
        <path id="패스_36145" data-name="패스 36145" d="M1544.874,336.995a4.2,4.2,0,0,1-3.174-.274,4.843,4.843,0,0,1-2.444-2.862,2.781,2.781,0,0,1,1.422-2.983,3.925,3.925,0,0,1,4.909.128,38.449,38.449,0,0,0-.068-4.772,16.919,16.919,0,1,0-8.805,30.035A51.389,51.389,0,0,0,1544.874,336.995Zm-23.623,5.465a1.853,1.853,0,0,1,.427-3.511,1.69,1.69,0,0,1,1.219.239C1524.717,340.348,1523.3,343.344,1521.251,342.46Zm5.105-7.468c-.72.828-2.454,1.662-3.784.637a2.758,2.758,0,0,1-.173-4.143,2.644,2.644,0,0,1,3.957,3.506Zm11.03-6.929a3.117,3.117,0,0,1-3.5-.025c-1.375-.889-1.659-2.313-.685-2.968a3.266,3.266,0,0,1,3.546.4C1537.779,326.262,1538.1,327.445,1537.386,328.064Zm.023,13.356c-1.375-.891-1.654-2.323-.677-2.985a3.254,3.254,0,0,1,3.549.39c1.027.8,1.346,1.986.627,2.61A3.107,3.107,0,0,1,1537.409,341.42Z" transform="translate(-1518.037 -322.514)" fill="#dedcd3"/>
        <path id="패스_36146" data-name="패스 36146" d="M1543.833,342.473c.05-.192.094-.385.138-.579.081-.363.147-.73.2-1.1.028-.186.062-.372.083-.557.053-.445.086-.893.106-1.341,0-.1.017-.206.018-.31.013-.544,0-1.09-.038-1.634-.012-.176-.037-.35-.053-.526-.036-.373-.08-.745-.138-1.115-.035-.212-.075-.425-.116-.635-.065-.337-.141-.672-.226-1.005-.053-.211-.1-.421-.166-.63-.1-.355-.22-.705-.345-1.052-.062-.174-.115-.35-.183-.521-.184-.478-.391-.946-.615-1.405a16.85,16.85,0,0,0-4.4-5.309,38.449,38.449,0,0,1,.068,4.772,4.453,4.453,0,0,1,1.608,2.457,3.051,3.051,0,0,1-2.321,3.534,51.389,51.389,0,0,1-8.16,19.273,16.918,16.918,0,0,0,12.956-8.447l.063-.111c.231-.413.44-.845.639-1.284.07-.156.138-.312.2-.469.129-.31.244-.624.355-.937C1543.627,343.188,1543.739,342.833,1543.833,342.473Zm-1.684-2.852a2.218,2.218,0,0,1-2.29-.715c-.559-.645-.237-3.041,1.039-3.189a2.233,2.233,0,0,1,2.471,1.961,1.811,1.811,0,0,1-1.2,1.94Z" transform="translate(-1510.617 -321.037)" fill="#bebab1"/>
      </g>
      <path id="패스_36147" data-name="패스 36147" d="M1539.276,333.331a2.233,2.233,0,0,0-2.471-1.961c-1.276.148-1.6,2.543-1.039,3.189a2.218,2.218,0,0,0,2.29.715l.02,0A1.811,1.811,0,0,0,1539.276,333.331Z" transform="translate(-1506.525 -316.69)" fill="#616261"/>
      <path id="패스_36148" data-name="패스 36148" d="M1538.793,330.456a4.453,4.453,0,0,0-1.608-2.457,3.925,3.925,0,0,0-4.909-.128,2.781,2.781,0,0,0-1.422,2.983,4.843,4.843,0,0,0,2.444,2.862,4.2,4.2,0,0,0,3.174.274A3.051,3.051,0,0,0,1538.793,330.456Z" transform="translate(-1509.635 -319.509)" fill="#616261"/>
      <path id="패스_36149" data-name="패스 36149" d="M1524.773,328.139a2.718,2.718,0,0,0-3.768.108,2.758,2.758,0,0,0,.173,4.143c1.331,1.025,3.064.191,3.784-.637A2.7,2.7,0,0,0,1524.773,328.139Z" transform="translate(-1516.643 -319.274)" fill="#616261"/>
      <path id="패스_36150" data-name="패스 36150" d="M1530.953,324.6a3.266,3.266,0,0,0-3.546-.4c-.974.655-.69,2.079.685,2.968a3.117,3.117,0,0,0,3.5.025C1532.3,326.571,1531.982,325.388,1530.953,324.6Z" transform="translate(-1512.24 -321.641)" fill="#616261"/>
      <path id="패스_36151" data-name="패스 36151" d="M1533.084,332.645a3.254,3.254,0,0,0-3.549-.39c-.978.662-.7,2.094.677,2.985a3.107,3.107,0,0,0,3.5.015C1534.43,334.631,1534.111,333.441,1533.084,332.645Z" transform="translate(-1510.84 -316.334)" fill="#616261"/>
      <path id="패스_36152" data-name="패스 36152" d="M1522.059,332.671a1.69,1.69,0,0,0-1.219-.239,1.853,1.853,0,0,0-.427,3.511C1522.466,336.827,1523.879,333.831,1522.059,332.671Z" transform="translate(-1517.2 -315.997)" fill="#616261"/>
    </g>
    <path id="패스_36153" data-name="패스 36153" d="M1442.538,322.956h5.686l11.018,17.879,11.018-17.879h5.684v31.957h-7.136V337.386l-7.411,12.273h-4.312l-7.411-12.273v17.527h-7.136Z" transform="translate(0 0.291)" fill="#fff"/>
    <path id="패스_36154" data-name="패스 36154" d="M1466.076,322.956h23.762v6.2h-16.626v6.509h15.254v6.2h-15.254v6.862h16.98v6.2h-24.115Z" transform="translate(15.515 0.291)" fill="#fff"/>
    <path id="패스_36155" data-name="패스 36155" d="M1510.325,329.267h-10.389v25.645H1492.8V329.267h-10.391v-6.311h27.918Z" transform="translate(26.279 0.291)" fill="#fff"/>
    <path id="패스_36156" data-name="패스 36156" d="M1501.55,322.956h23.762v6.2h-16.626v6.509h15.254v6.2h-15.254v6.862h16.98v6.2H1501.55Z" transform="translate(38.897 0.291)" fill="#fff"/>
    <path id="패스_36157" data-name="패스 36157" d="M1560.2,354.913l-6.2-10.078h-5.684v10.078h-7.138V322.956h12.862a16.208,16.208,0,0,1,6.9,1.352,10.037,10.037,0,0,1,4.43,3.823,11.655,11.655,0,0,1,.02,11.509,9.906,9.906,0,0,1-4.334,3.783l7.411,11.49Zm-11.881-16.391h5.41a7.267,7.267,0,0,0,4.451-1.2,4.5,4.5,0,0,0,0-6.862,7.278,7.278,0,0,0-4.451-1.2h-5.41Z" transform="translate(65.021 0.291)" fill="#fff"/>
  </g>
</svg>
