<svg xmlns="http://www.w3.org/2000/svg" width="48.978" height="50.602" viewBox="0 0 48.978 50.602">
  <g id="그룹_858" data-name="그룹 858" transform="translate(-87.481 -125.765)">
    <g id="그룹_772" data-name="그룹 772" transform="translate(99.338 125.765)">
      <path id="패스_11426" data-name="패스 11426" d="M147.61,142.582a1.383,1.383,0,0,0-1.96-.233l-4.6,3.667a1.741,1.741,0,0,1-2.169-2.723l1.649-1.315a1.067,1.067,0,0,0-1.33-1.669l-.564.45a2.134,2.134,0,0,1-2.66-3.338l3.821-3.044a1.067,1.067,0,0,0-1.33-1.669l-2.431,1.937a2.134,2.134,0,0,1-2.659-3.338l4.558-3.632a1.06,1.06,0,0,0,.16-1.492,1.027,1.027,0,0,0-1.49-.177l-20.232,16.12A10.529,10.529,0,0,0,129.494,158.6l10.769-8.58,7.032-5.6A1.167,1.167,0,0,0,147.61,142.582Z" transform="translate(-112.475 -125.765)" fill="#fff"/>
      <g id="그룹_771" data-name="그룹 771" transform="translate(1.307 15.129)">
        <path id="패스_11427" data-name="패스 11427" d="M130.009,165.63a2.315,2.315,0,0,1-1.748-.151,2.662,2.662,0,0,1-1.346-1.576,1.532,1.532,0,0,1,.784-1.642,2.161,2.161,0,0,1,2.7.07,21.109,21.109,0,0,0-.037-2.628,9.318,9.318,0,1,0-4.849,16.541A28.321,28.321,0,0,0,130.009,165.63ZM117,168.64a1.02,1.02,0,0,1,.235-1.934.93.93,0,0,1,.671.131A1.015,1.015,0,0,1,117,168.64Zm2.811-4.113a1.6,1.6,0,0,1-2.084.351,1.519,1.519,0,0,1-.095-2.282,1.456,1.456,0,0,1,2.178,1.931Zm6.075-3.816a1.716,1.716,0,0,1-1.925-.013c-.758-.49-.914-1.274-.377-1.634a1.8,1.8,0,0,1,1.953.219C126.1,159.72,126.279,160.371,125.885,160.711Zm.013,7.356c-.758-.491-.911-1.28-.373-1.644a1.792,1.792,0,0,1,1.955.215c.566.438.741,1.093.346,1.437A1.711,1.711,0,0,1,125.9,168.067Z" transform="translate(-115.23 -157.655)" fill="#d5d4ca"/>
        <path id="패스_11428" data-name="패스 11428" d="M144.917,171.729c.028-.106.053-.213.077-.319.044-.2.081-.4.112-.6.016-.1.033-.2.046-.307.029-.245.047-.491.058-.738,0-.057.009-.114.01-.171.008-.3,0-.6-.021-.9-.007-.1-.02-.194-.029-.29-.02-.205-.044-.41-.076-.614-.018-.117-.041-.233-.063-.35q-.054-.279-.124-.554c-.029-.116-.058-.232-.092-.347-.056-.2-.122-.388-.19-.58-.034-.1-.064-.193-.1-.287-.1-.262-.216-.52-.34-.773a9.285,9.285,0,0,0-2.425-2.924,21.108,21.108,0,0,1,.037,2.628,2.457,2.457,0,0,1,.886,1.353A1.68,1.68,0,0,1,141.4,167.9a28.321,28.321,0,0,1-4.494,10.614,9.316,9.316,0,0,0,7.135-4.652l.035-.061c.127-.228.243-.466.352-.708.038-.085.076-.171.111-.258.072-.171.134-.344.2-.517C144.8,172.123,144.866,171.927,144.917,171.729Zm-.927-1.571a1.22,1.22,0,0,1-1.26-.394c-.308-.355-.131-1.675.572-1.756a1.229,1.229,0,0,1,1.361,1.079,1,1,0,0,1-.661,1.068Z" transform="translate(-126.625 -159.924)" fill="#b1afa7"/>
      </g>
      <path id="패스_11429" data-name="패스 11429" d="M150.948,175.765a1.229,1.229,0,0,0-1.361-1.079c-.7.081-.88,1.4-.572,1.756a1.22,1.22,0,0,0,1.26.394l.011,0A1,1,0,0,0,150.948,175.765Z" transform="translate(-131.605 -151.472)" fill="#575b5c"/>
      <path id="패스_11430" data-name="패스 11430" d="M144.191,168.3a2.457,2.457,0,0,0-.886-1.353,2.161,2.161,0,0,0-2.7-.07,1.532,1.532,0,0,0-.784,1.642,2.662,2.662,0,0,0,1.346,1.576,2.315,2.315,0,0,0,1.748.151A1.68,1.68,0,0,0,144.191,168.3Z" transform="translate(-126.827 -147.142)" fill="#575b5c"/>
      <path id="패스_11431" data-name="패스 11431" d="M121.847,167.513a1.5,1.5,0,0,0-2.074.059,1.519,1.519,0,0,0,.095,2.282,1.6,1.6,0,0,0,2.084-.351A1.486,1.486,0,0,0,121.847,167.513Z" transform="translate(-116.064 -147.503)" fill="#575b5c"/>
      <path id="패스_11432" data-name="패스 11432" d="M134.439,160.625a1.8,1.8,0,0,0-1.953-.219c-.537.36-.38,1.144.377,1.634a1.716,1.716,0,0,0,1.925.013C135.183,161.712,135.006,161.062,134.439,160.625Z" transform="translate(-122.826 -143.868)" fill="#575b5c"/>
      <path id="패스_11433" data-name="패스 11433" d="M138.532,176.13a1.792,1.792,0,0,0-1.955-.215c-.538.364-.384,1.153.373,1.644a1.711,1.711,0,0,0,1.927.008C139.273,177.223,139.1,176.568,138.532,176.13Z" transform="translate(-124.976 -152.018)" fill="#575b5c"/>
      <path id="패스_11434" data-name="패스 11434" d="M119.192,176.847a.929.929,0,0,0-.671-.131,1.011,1.011,0,1,0,.671.131Z" transform="translate(-115.209 -152.536)" fill="#575b5c"/>
    </g>
    <g id="그룹_773" data-name="그룹 773" transform="translate(87.481 167.76)">
      <path id="패스_11435" data-name="패스 11435" d="M87.481,214.733h1.458l2.825,4.585,2.826-4.585h1.458v8.195h-1.83v-4.494l-1.9,3.147H91.212l-1.9-3.147v4.494h-1.83Z" transform="translate(-87.481 -214.522)" fill="#fff"/>
      <path id="패스_11436" data-name="패스 11436" d="M108.6,214.733h6.093v1.589h-4.263v1.669h3.911v1.588h-3.911v1.76h4.354v1.589H108.6Z" transform="translate(-98.58 -214.522)" fill="#fff"/>
      <path id="패스_11437" data-name="패스 11437" d="M130.406,216.352h-2.664v6.576h-1.83v-6.576h-2.664v-1.619h7.159Z" transform="translate(-106.28 -214.522)" fill="#fff"/>
      <path id="패스_11438" data-name="패스 11438" d="M140.418,214.733h6.093v1.589h-4.263v1.669h3.911v1.588h-3.911v1.76H146.6v1.589h-6.184Z" transform="translate(-115.305 -214.522)" fill="#fff"/>
      <path id="패스_11439" data-name="패스 11439" d="M155.026,218.592a4.426,4.426,0,1,1,4.424,4.3A4.239,4.239,0,0,1,155.026,218.592Zm7.018,0a2.595,2.595,0,1,0-2.594,2.654A2.541,2.541,0,0,0,162.044,218.592Z" transform="translate(-122.983 -214.289)" fill="#fff"/>
      <path id="패스_11440" data-name="패스 11440" d="M180.848,222.928l-1.589-2.584H177.8v2.584h-1.83v-8.195h3.3c2.081,0,3.3,1.106,3.3,2.806a2.549,2.549,0,0,1-1.5,2.443l1.9,2.946Zm-3.047-4.2h1.388c.965,0,1.548-.412,1.548-1.186s-.583-1.186-1.548-1.186H177.8Z" transform="translate(-133.992 -214.522)" fill="#fff"/>
    </g>
  </g>
</svg>
